<?xml version="1.0" encoding="UTF-8" standalone="no"?>
<svg
   xmlns:dc="http://purl.org/dc/elements/1.1/"
   xmlns:cc="http://creativecommons.org/ns#"
   xmlns:rdf="http://www.w3.org/1999/02/22-rdf-syntax-ns#"
   xmlns:svg="http://www.w3.org/2000/svg"
   xmlns="http://www.w3.org/2000/svg"
   version="1.1"
   viewBox="0 0 24 24"
   id="svg4139">
  <metadata
     id="metadata19">
    <rdf:RDF>
      <cc:Work
         rdf:about="">
        <dc:format>image/svg+xml</dc:format>
        <dc:type
           rdf:resource="http://purl.org/dc/dcmitype/StillImage" />
        <dc:title></dc:title>
      </cc:Work>
    </rdf:RDF>
  </metadata>
  <defs
     id="defs17" />
  <g
     transform="matrix(.046565 0 0 .046565 .35709 -25.381)"
     id="layer1">
    <path
       style="fill:#ffffff"
       fill="#ccc"
       stroke-width="1px"
       stroke="#000"
       transform="matrix(1.608,0,0,1.6736,-147.33,-534.92)"
       fill-rule="evenodd"
       d="m 232.03,803.29 c -8.8666,-0.0556 -5.5908,-12.476 -1.6122,-16.09 10.545,-9.5782 26.598,-2.1268 32.79,8.6592 10.6,18.466 -0.87506,41.142 -18.931,49.489 -25.996,12.017 -55.887,-3.8506 -66.189,-29.202 -13.583,-33.427 6.8085,-70.712 39.473,-82.889 40.821,-15.217 85.577,9.7561 99.588,49.745 16.888,48.197 -12.697,100.46 -60.016,116.29 -55.564,18.58 -115.37,-15.635 -132.99,-70.288 -20.287,-62.926 18.569,-130.28 80.559,-149.69 70.284,-22.003 145.2,21.502 166.39,90.83 13.919,45.547 3.4419,95.998 -26.324,132.99 0,0 0.13826,-0.7554 -112.7378,-99.8442 z"
       id="path6171" />
    <circle
       fill="none"
       r="231.23"
       cx="250.29"
       cy="802.65"
       stroke="#000"
       stroke-width="10"
       id="path4687" />
    <path
       transform="matrix(21.475357,0,0,21.475357,-7.6686352,545.06604)"
       id="path4204"
       d="m 14.66864,15.683688 -1.429665,-1.325971 0.194069,-0.573774 c 0.359215,-1.062039 0.01864,-2.212203 -0.832107,-2.810131 -0.353713,-0.248599 -0.538339,-0.306015 -0.984013,-0.306015 -0.480782,0 -0.588556,0.03995 -0.871749,0.323142 -0.257028,0.257029 -0.325049,0.412036 -0.332464,0.757619 -0.0076,0.353033 0.03339,0.456159 0.218512,0.550153 0.125309,0.06362 0.711905,0.564563 1.303547,1.113201 l 1.075714,0.997525 -0.487374,0.494814 C 10.565913,16.891327 7.1919937,15.390475 6.6621121,12.297048 6.4232454,10.902554 6.9836653,9.2369423 8.0595617,8.1437182 9.0670314,7.1200228 10.174477,6.6411832 11.572881,6.6246216 c 1.572376,-0.018622 2.842254,0.5285677 4.07062,1.7540276 0.858243,0.8562133 1.403899,1.8205268 1.66935,2.9501648 0.208624,0.887813 0.201022,2.387264 -0.01667,3.289213 -0.177324,0.734672 -0.910373,2.31574 -1.096448,2.364859 -0.05578,0.01473 -0.744772,-0.569914 -1.531088,-1.299198 z"
       style="fill:#ffffff;fill-opacity:1;fill-rule:evenodd" />
  </g>
</svg>
